<svg width="598" height="517" viewBox="0 0 598 517" fill="none" xmlns="http://www.w3.org/2000/svg">
<g clip-path="url(#clip0_1_42)">
<path d="M383.271 120.438C346.897 152.823 299.98 170.58 246.199 181.66C199.069 191.369 146.713 195.943 91.6085 200.756C83.8257 201.436 75.988 202.121 68.1025 202.825C-58.665 214.152 -197.719 230.623 -319.47 315.301C-318.918 314.331 -318.162 313.004 -317.21 311.336C-315.011 307.481 -311.767 301.804 -307.59 294.52C-299.235 279.953 -287.149 258.958 -272.219 233.25C-242.361 181.833 -201.132 111.56 -155.651 36.1378C-64.6814 -114.721 43.2751 -286.14 111.288 -368.513C179.23 -450.799 256.872 -475.821 317.524 -480.285C347.855 -482.518 373.942 -479.608 392.444 -476.141C401.694 -474.407 409.048 -472.535 414.086 -471.096C416.605 -470.377 418.545 -469.766 419.855 -469.336C420.181 -469.229 420.469 -469.133 420.716 -469.049C420.964 -468.965 421.172 -468.893 421.339 -468.835C421.433 -468.802 421.515 -468.773 421.583 -468.749L421.601 -468.742C452.246 -364.227 482.188 -252.157 484.72 -148.604C487.252 -44.9829 462.338 50.044 383.271 120.438Z" stroke="#F2CDCE"/>
</g>
<defs>
<clipPath id="clip0_1_42">
<rect width="598" height="517" fill="white"/>
</clipPath>
</defs>
</svg>
