<svg width="230" height="39" viewBox="0 0 230 39" fill="none" xmlns="http://www.w3.org/2000/svg">
<path d="M114.365 11.918C114.62 12.129 114.793 12.288 114.98 12.428C118.284 14.878 121.608 17.32 124.927 19.762C125.732 20.359 126.623 20.895 128.129 21.027C128.299 21.044 128.523 21.185 128.558 21.29C128.625 21.493 128.574 21.712 128.574 21.967H127.666C124.294 21.967 120.937 21.958 117.565 21.976C116.932 21.976 116.571 21.87 116.23 21.598C112.412 18.691 108.578 15.783 104.759 12.885C104.673 12.815 104.605 12.709 104.467 12.682C104.075 12.603 103.664 12.524 103.27 12.524C103.149 12.524 102.944 12.788 102.944 12.929C102.927 14.826 102.944 16.723 102.962 18.62C102.962 18.805 102.98 18.99 103.013 19.174C103.235 20.333 104.229 20.86 106.47 21.001C106.695 21.018 106.917 21.044 107.139 21.036C108.012 21.018 107.997 21.299 108.012 21.624C108.03 22.028 107.515 21.958 107.053 21.958H88.3746C88.3633 21.8199 88.3405 21.6822 88.3063 21.545C88.2206 21.211 88.4428 21.035 89.1445 21.027C89.6415 21.018 90.1561 20.983 90.6356 20.922C92.4327 20.684 93.339 20.105 93.4423 19.138C93.493 18.655 93.4774 18.172 93.4774 17.68V5.40004C93.4774 4.98004 93.4774 4.54004 93.3059 4.12704C92.9122 3.10804 91.8499 2.64304 89.8306 2.52904C89.6064 2.51904 89.3842 2.50204 89.162 2.51104C88.357 2.54604 88.3063 2.30104 88.2888 1.97504C88.2713 1.59804 88.6494 1.57104 89.2302 1.57104C95.6858 1.58104 102.139 1.56304 108.595 1.58104C111.864 1.58904 115.082 1.75605 118.095 2.50205C122.052 3.48605 123.625 5.30404 123.249 7.42204C122.804 9.91604 119.432 11.084 115.887 11.672C115.425 11.769 114.98 11.831 114.365 11.918ZM102.909 7.53504C102.909 8.72104 102.929 9.89804 102.894 11.084C102.874 11.427 103.116 11.541 103.783 11.497C105.085 11.417 106.385 11.391 107.669 11.277C110.221 11.04 112.191 10.39 112.909 9.03704C113.645 7.67604 113.61 6.30604 112.909 4.94404C112.447 4.06604 111.402 3.38904 109.708 3.04704C108.307 2.7586 106.782 2.66746 105.289 2.78304C103.492 2.92404 102.944 3.23104 102.911 4.17104C102.892 5.27804 102.911 6.41104 102.911 7.53504H102.909Z" fill="#3C3B3D"/>
<path d="M164.066 15.73C163.689 16.644 163.313 17.531 162.935 18.418C162.508 19.438 162.046 20.448 161.635 21.466C161.499 21.817 161.259 21.984 160.454 21.976C149.821 21.958 139.189 21.966 128.558 21.966H127.753C127.685 21.888 127.634 21.853 127.634 21.817C127.548 21.132 127.548 21.132 128.866 21.044C131.657 20.851 132.803 20.245 132.803 18.787C132.838 14.105 132.823 9.43295 132.823 4.75095V4.70695C132.686 3.20495 131.536 2.59895 128.593 2.52895C128.028 2.51095 127.599 2.51095 127.583 2.09895C127.583 1.67695 127.839 1.57995 128.626 1.57995C139.07 1.58895 149.498 1.58895 159.941 1.58895C161.052 1.58895 161.052 1.58895 161.052 2.15095V7.20095C161.052 7.42995 161.208 7.70195 160.436 7.72895C159.77 7.74595 159.53 7.60595 159.409 7.28095C159.219 6.76418 158.95 6.25592 158.604 5.76095C157.509 4.17095 155.215 3.24095 152.047 3.02095C149.48 2.84495 146.843 2.84495 144.241 2.84495C142.82 2.83595 142.323 3.16095 142.323 3.89895C142.305 6.11195 142.323 8.31695 142.307 10.531C142.307 10.847 142.494 10.987 143.128 10.935C144.258 10.847 145.422 10.82 146.5 10.662C149.17 10.258 150.422 9.20395 151.038 7.89495C151.193 7.57895 151.295 7.25495 151.345 6.92895C151.396 6.53395 151.893 6.57795 152.408 6.56895C152.973 6.55995 153.109 6.71895 153.109 6.97295C153.092 8.36995 153.109 9.76595 153.109 11.163V16.3C153.109 16.546 153.178 16.792 152.425 16.784C151.825 16.774 151.398 16.774 151.312 16.362C151.176 15.756 150.866 15.158 150.558 14.57C149.839 13.182 147.905 12.523 145.286 12.304C144.599 12.242 143.898 12.234 143.214 12.19C142.563 12.146 142.34 12.269 142.34 12.611C142.375 14.21 142.358 15.808 142.358 17.407C142.358 18.022 142.34 18.637 142.391 19.243C142.477 20.358 143.282 20.789 145.44 20.868C148.367 20.982 151.295 20.947 154.068 20.376C157.596 19.656 159.735 18.233 161.397 16.573C161.514 16.45 161.635 16.318 161.756 16.186C162.372 15.448 162.372 15.448 164.066 15.729V15.73ZM194.01 10.039C194.01 8.20295 194.096 6.35895 193.977 4.52195C193.907 3.17895 192.761 2.65195 190.124 2.54595C189.867 2.53695 189.627 2.53695 189.372 2.52895C188.43 2.51095 188.087 2.28295 188.397 1.80895C188.463 1.71195 188.789 1.60595 188.993 1.60595C192.915 1.59795 196.835 1.59795 200.774 1.59795C201.236 1.59795 201.372 1.72095 201.322 1.91395C201.254 2.12395 201.612 2.42395 200.91 2.51995C200.807 2.53695 200.688 2.52895 200.585 2.53695C198.119 2.65195 196.887 3.30195 196.716 4.56695C196.665 4.96195 196.665 5.36595 196.665 5.76095C196.648 8.77395 196.665 11.778 196.595 14.791C196.562 16.047 196.168 17.285 195.244 18.462C193.771 20.332 191.118 21.572 187.335 22.063C182.54 22.687 177.764 22.643 173.227 21.536C168.825 20.465 166.344 18.638 166.241 16.143C166.087 12.621 166.19 9.09895 166.155 5.57695C166.155 5.18095 166.104 4.77695 166.019 4.38195C165.746 3.21395 164.615 2.65995 162.337 2.54595C161.413 2.50195 161.019 2.18595 161.362 1.74595C161.398 1.712 161.446 1.68209 161.505 1.65803C161.563 1.63397 161.631 1.61625 161.703 1.60595C161.892 1.57995 162.099 1.59795 162.288 1.59795H180.074C181.068 1.59795 181.169 1.66795 181.119 2.15995C181.101 2.40595 180.897 2.50195 180.4 2.52895C179.601 2.55722 178.806 2.61267 178.022 2.69495C176.755 2.84495 176.018 3.29295 175.778 3.93395C175.622 4.31995 175.538 4.72395 175.538 5.11995C175.519 8.81795 175.486 12.507 175.554 16.205C175.573 16.89 175.827 17.601 176.275 18.242C177.182 19.525 179.082 20.298 181.684 20.596C183.872 20.851 186.157 20.7717 188.259 20.368C191.683 19.727 193.137 18.286 193.685 16.574C193.977 15.66 194.046 14.729 194.096 13.807C194.164 12.551 194.114 11.295 194.114 10.039H194.01ZM53.7241 10.61V5.47995C53.7241 5.11095 53.6735 4.74195 53.5877 4.37295C53.2953 3.21295 52.1668 2.66895 49.8726 2.55495C48.9818 2.51095 48.555 2.15095 48.9662 1.74695C49.052 1.65895 49.4107 1.61495 49.6485 1.60695C51.5157 1.59695 53.383 1.59695 55.2484 1.59695H67.6957C68.2609 1.59695 68.7229 1.57995 68.7404 2.00195C68.7404 2.38795 68.5338 2.56395 67.7463 2.52895C67.3571 2.51898 66.967 2.53071 66.5827 2.56395C64.614 2.68695 63.6395 3.14395 63.2945 4.14395C63.187 4.45163 63.1303 4.7634 63.1249 5.07595C63.1054 8.79995 63.1054 12.516 63.1249 16.24C63.1249 17.118 63.4329 17.97 64.3061 18.743C65.5379 19.823 67.4052 20.456 69.7676 20.64C72.282 20.842 74.7828 20.728 77.0594 20.07C79.7141 19.305 80.792 18.005 81.289 16.556C81.5113 15.888 81.6477 15.194 81.6652 14.518C81.7003 11.312 81.7179 8.10595 81.6321 4.89095C81.597 3.09095 80.5347 2.59095 76.9736 2.51095C75.999 2.49295 75.8957 2.42295 75.9484 1.92295C75.964 1.70295 76.1004 1.57095 76.5799 1.57995C80.5016 1.57995 84.4213 1.58895 88.3606 1.57995C88.8732 1.57995 88.994 1.71995 88.9414 1.93095C88.8732 2.14195 89.2338 2.44995 88.4619 2.51095H88.3762C85.2965 2.54595 84.3024 3.60895 84.2849 4.87395C84.2673 7.85095 84.2673 10.838 84.2518 13.815C84.2323 15.168 84.0452 16.521 83.2402 17.83C81.8368 20.13 78.8935 21.598 74.2857 22.134C70.1263 22.617 65.9824 22.564 61.9593 21.791C57.1995 20.878 53.6559 18.866 53.7085 15.511C53.7417 13.886 53.7241 12.243 53.7241 10.61ZM225.719 7.59695C225.308 7.59695 225 7.58695 224.708 7.59695C224.178 7.61395 223.938 7.52695 223.784 7.23695C223.065 5.87495 221.952 4.60095 219.965 3.59095C217.398 2.27395 214.299 1.75595 210.738 2.18595C208.426 2.45795 206.902 3.22195 206.508 4.45195C206.132 5.61195 206.955 6.61195 208.787 7.25395C210.567 7.87795 212.535 8.36095 214.471 8.85295C217.295 9.56395 220.188 10.179 222.706 11.172C226.489 12.656 228.013 14.623 227.294 16.995C226.591 19.314 223.784 20.815 219.607 21.659C215.258 22.538 210.841 22.415 206.44 21.747C205.516 21.607 204.575 21.457 203.633 21.36C202.435 21.238 201.938 21.37 201.612 21.958C201.355 22.406 200.739 22.274 200.226 22.274C199.558 22.274 199.729 21.993 199.729 21.8C199.712 19.621 199.729 17.434 199.729 15.256C199.729 15.036 199.626 14.773 200.345 14.79C200.91 14.8 201.425 14.711 201.595 15.186C202.314 17.197 203.975 18.954 207.245 20.21C209.865 21.22 212.81 21.58 215.977 21.053C218.357 20.658 219.88 19.797 220.273 18.515C220.72 17.1 219.726 15.95 217.313 15.247C214.796 14.518 212.159 13.903 209.574 13.253C207.52 12.735 205.516 12.173 203.838 11.365C200.484 9.75695 199.694 7.74595 200.567 5.53295C201.715 2.59895 206.286 1.19295 211.644 0.999954C214.642 0.894954 217.432 1.29895 220.223 1.74695C220.616 1.80795 221.028 1.86095 221.439 1.90495C222.603 2.04495 223.219 1.88695 223.733 1.34295C224.024 1.03495 224.93 0.850954 225.495 1.00895C225.616 1.04395 225.735 1.16695 225.735 1.24595C225.735 3.31895 225.719 5.41795 225.719 7.59595V7.59695ZM0.0522639 38.207C0.0522639 37.864 -0.0841767 37.548 0.0853995 37.276C0.256925 37.021 0.701332 36.661 1.1126 36.635C4.12599 36.441 5.80421 35.467 6.86455 34.14C9.75904 30.548 12.6009 26.938 15.4428 23.336C21.0251 16.266 26.588 9.19495 32.1353 2.11595C32.5115 1.64095 32.8195 1.30695 34.0708 1.30695C35.3378 1.30695 35.9868 1.51695 36.4839 2.11495C44.4949 11.733 52.5605 21.351 60.6241 30.96C61.5656 32.094 62.4895 33.227 63.5167 34.333C64.6296 35.545 66.3079 36.459 69.0815 36.653C69.9391 36.713 70.2802 36.916 70.1945 37.346C70.1438 37.618 70.1769 37.891 70.1769 38.225H36.6905C36.6554 38.005 36.6379 37.812 36.5872 37.618C36.3806 36.942 36.8951 36.661 38.2635 36.696C39.1367 36.722 40.0274 36.617 40.9007 36.546C44.1031 36.31 45.5396 35.291 44.53 33.71C43.3488 31.848 41.9123 30.038 40.5069 28.211C40.3705 28.018 39.737 27.816 39.3257 27.816C32.2608 27.7896 25.1956 27.7896 18.1307 27.816C17.7213 27.816 17.0859 27.966 16.967 28.132C15.5968 30.012 14.0901 31.874 13.0453 33.798C12.1721 35.405 13.5092 36.248 16.7604 36.52C17.9767 36.626 19.1929 36.679 20.4248 36.714C21.6918 36.758 21.3662 37.224 21.4189 37.601C21.4696 37.979 21.4189 38.286 20.3897 38.286C13.8172 38.268 7.24269 38.277 0.668196 38.268C0.512264 38.295 0.375823 38.26 0.0522639 38.207ZM19.0721 25.392H38.3161C34.9772 21.263 31.724 17.267 28.4885 13.262C28.352 13.27 28.1961 13.288 28.0596 13.297C25.0989 17.311 22.1206 21.317 19.074 25.392H19.0721ZM80.5191 33.113V37.487C80.5523 37.917 80.9129 38.128 81.751 38.19H81.8017C82.2636 38.216 82.2812 38.234 82.1779 38.488C82.1096 38.488 82.0414 38.497 81.9557 38.497H78.3614C78.2406 38.497 78.0885 38.515 78.1041 38.409C78.1041 38.321 78.069 38.216 78.3439 38.207C78.4544 38.2076 78.5645 38.1988 78.6694 38.181C79.3711 38.101 79.679 37.909 79.7297 37.531C79.7492 37.461 79.7492 37.399 79.7492 37.329V33.174C79.7492 32.638 79.4744 32.498 78.4121 32.471C78.1197 32.463 78.0028 32.375 78.1197 32.234C78.1548 32.199 78.2932 32.182 78.379 32.182H81.3748C81.7685 32.182 82.1447 32.19 82.5385 32.182C82.71 32.182 82.7957 32.217 82.864 32.296C83.4799 33.078 84.0958 33.851 84.7293 34.632C85.2088 35.23 85.6883 35.827 86.1678 36.432C86.2029 36.468 86.236 36.503 86.3042 36.565C86.4407 36.407 86.5615 36.266 86.6648 36.135C87.7096 34.869 88.7699 33.605 89.7971 32.34C89.9004 32.226 90.0193 32.182 90.259 32.19C91.5611 32.2 92.8456 32.19 94.1457 32.19C94.3172 32.19 94.4536 32.19 94.438 32.313C94.438 32.419 94.4185 32.489 94.1457 32.489C93.9715 32.4908 93.7988 32.5056 93.633 32.533C93.4464 32.554 93.2769 32.6041 93.1478 32.6764C93.0187 32.7487 92.9363 32.8397 92.9118 32.937C92.8645 33.0523 92.8423 33.1701 92.8456 33.288V37.408C92.8456 37.54 92.8962 37.68 92.9469 37.812C93.0327 38.04 93.3582 38.146 93.7851 38.19C93.8552 38.198 93.9235 38.198 93.9917 38.207C94.4536 38.234 94.4536 38.233 94.4029 38.497H88.3411V38.33C88.3255 38.26 88.4112 38.234 88.5301 38.225C88.7523 38.207 88.9921 38.19 89.2162 38.155C89.6451 38.075 89.8653 37.9 89.9511 37.68C90.0037 37.53 90.0368 37.382 90.0368 37.232V33.192C90.0368 33.157 90.0368 33.122 89.9862 33.078L89.8653 33.192C88.4288 34.905 87.0079 36.617 85.5694 38.33C85.4992 38.4 85.5168 38.515 85.2614 38.515C85.0723 38.515 84.9515 38.497 84.8657 38.392C83.4757 36.6744 82.0781 34.9584 80.6731 33.244C80.638 33.201 80.6029 33.165 80.5698 33.13C80.5523 33.104 80.5347 33.113 80.5191 33.113ZM183.996 35.38C184.064 35.432 184.115 35.467 184.15 35.502L187.3 37.83C187.539 38.006 187.797 38.155 188.241 38.199C188.309 38.208 188.377 38.26 188.397 38.295C188.43 38.348 188.397 38.41 188.397 38.48C188.294 38.48 188.206 38.489 188.138 38.489H184.955C184.783 38.489 184.682 38.454 184.577 38.383L181.033 35.696C180.982 35.66 180.947 35.608 180.879 35.59C180.776 35.564 180.657 35.555 180.538 35.564C180.485 35.564 180.435 35.634 180.435 35.678V37.478C180.435 37.531 180.452 37.575 180.452 37.628C180.52 37.988 180.828 38.146 181.53 38.19C181.563 38.19 181.581 38.19 181.598 38.199C182.027 38.225 182.06 38.252 181.957 38.489H175.932C175.913 38.454 175.915 38.419 175.915 38.383C175.879 38.269 175.948 38.208 176.187 38.208C176.324 38.208 176.48 38.198 176.616 38.173C177.164 38.103 177.439 37.927 177.489 37.637C177.507 37.557 177.507 37.479 177.507 37.4V33.35C177.507 33.227 177.507 33.104 177.454 32.981C177.335 32.665 177.01 32.525 176.377 32.49C176.308 32.49 176.24 32.48 176.172 32.48C175.915 32.49 175.915 32.42 175.899 32.314C175.899 32.2 176 32.191 176.187 32.191H182.181C183.191 32.191 184.183 32.244 185.109 32.472C186.341 32.771 186.838 33.332 186.734 34C186.598 34.747 185.604 35.125 184.458 35.318C184.3 35.33 184.145 35.3505 183.996 35.379V35.38ZM180.452 34.018V35.098C180.452 35.221 180.52 35.256 180.76 35.238C181.154 35.212 181.548 35.204 181.941 35.168C182.729 35.098 183.327 34.905 183.567 34.492C183.807 34.071 183.789 33.64 183.584 33.21C183.448 32.929 183.105 32.71 182.557 32.621C182.146 32.5596 181.718 32.5329 181.29 32.542C180.657 32.56 180.485 32.674 180.468 32.999C180.452 33.342 180.452 33.675 180.452 34.018ZM105.41 38.524C105.41 38.489 105.394 38.48 105.394 38.462C105.377 38.278 105.377 38.278 105.755 38.252C106.542 38.208 106.798 38.076 106.833 37.672C106.866 37.25 106.868 36.837 106.868 36.416C106.868 35.371 106.848 34.334 106.833 33.289C106.833 33.183 106.815 33.079 106.764 32.973C106.609 32.665 106.32 32.543 105.687 32.516C105.412 32.507 105.275 32.393 105.394 32.27C105.412 32.244 105.515 32.226 105.583 32.226C105.841 32.217 106.096 32.226 106.353 32.226H110.752C112.019 32.226 113.236 32.314 114.399 32.595C115.855 32.955 116.797 33.535 117.226 34.335C117.602 35.0372 117.583 35.7798 117.173 36.477C116.711 37.285 115.666 37.839 114.16 38.173C113.153 38.3944 112.071 38.5107 110.977 38.515C109.178 38.533 107.38 38.524 105.566 38.524H105.41ZM109.795 35.318V37.461C109.795 37.584 109.829 37.716 109.864 37.839C109.914 38.049 110.103 38.146 110.515 38.173C111.164 38.208 111.815 38.163 112.398 38.006C113.304 37.76 113.733 37.338 114.006 36.855C114.349 36.231 114.399 35.59 114.331 34.949C114.307 34.5573 114.169 34.1696 113.922 33.799C113.425 33.087 112.534 32.621 110.977 32.577C110.103 32.551 109.795 32.692 109.795 33.131V35.318ZM194.576 38.629C190.997 38.638 188.259 37.215 188.241 35.335C188.221 33.473 190.946 32.05 194.541 32.041C198.137 32.032 200.875 33.455 200.893 35.326C200.893 37.197 198.17 38.62 194.576 38.629ZM191.426 35.344C191.406 35.344 191.373 35.344 191.356 35.352C191.477 35.818 191.545 36.283 191.699 36.74C191.835 37.135 192.128 37.513 192.64 37.83C192.845 37.9592 193.098 38.0663 193.384 38.1451C193.67 38.2239 193.984 38.2729 194.307 38.2891C194.63 38.3054 194.956 38.2887 195.267 38.2399C195.577 38.1911 195.866 38.1113 196.116 38.005C196.802 37.715 197.143 37.311 197.349 36.881C197.788 35.9384 197.817 34.9579 197.435 34.009C197.264 33.596 196.989 33.2 196.459 32.867C195.654 32.357 194.318 32.234 193.291 32.577C192.691 32.779 192.317 33.077 192.042 33.42C191.545 34.035 191.426 34.685 191.426 35.344Z" fill="#3C3B3D"/>
<path d="M94.4559 38.4799C94.4364 38.4529 94.4364 38.4359 94.4364 38.4269C94.4189 38.2339 94.4189 38.2339 94.797 38.2069C95.6702 38.1459 96.0289 37.961 96.0289 37.504C96.0464 36.064 96.0289 34.6239 96.0289 33.1739V33.1299C95.9782 32.6819 95.6196 32.4979 94.7444 32.4709C94.5904 32.4709 94.4033 32.4889 94.4208 32.3489C94.4208 32.1819 94.4208 32.1819 94.7444 32.1819H104.436C104.779 32.1819 104.777 32.1819 104.777 32.3569V33.921C104.777 33.982 104.829 34.0709 104.607 34.0789C104.4 34.0879 104.299 34.0529 104.264 33.9389C104.206 33.7962 104.132 33.6553 104.042 33.5169C103.716 32.9979 102.997 32.6909 101.97 32.6209C101.165 32.5679 100.36 32.5679 99.5568 32.5679C99.1105 32.5679 98.9565 32.665 98.9565 32.893V34.9489C98.9565 35.0449 99.0072 35.0889 99.2138 35.0719C99.5549 35.0449 99.9155 35.0359 100.259 34.9839C101.079 34.8609 101.473 34.5359 101.662 34.1319C101.713 34.0349 101.748 33.9299 101.748 33.8329C101.765 33.7099 101.919 33.728 102.073 33.719C102.245 33.719 102.295 33.7629 102.295 33.8419V36.7229C102.295 36.7929 102.329 36.8809 102.091 36.8729C101.884 36.8729 101.765 36.8729 101.73 36.7309C101.697 36.5469 101.594 36.363 101.49 36.1779C101.268 35.748 100.652 35.5549 99.8473 35.4839C99.6144 35.4675 99.3803 35.4558 99.1456 35.4489C99.0091 35.4399 98.939 35.475 98.939 35.5459C98.939 36.2569 98.939 36.9689 98.9584 37.6799C98.9584 37.9529 99.1787 38.0929 99.6933 38.1199C100.668 38.1799 101.644 38.1719 102.57 37.9789C103.666 37.7589 104.315 37.3109 104.829 36.8019C104.898 36.7319 104.966 36.652 105.034 36.573C105.087 36.512 105.155 36.4859 105.307 36.5029C105.65 36.5469 105.667 36.5379 105.582 36.7229C105.359 37.2759 105.12 37.8209 104.88 38.3739C104.847 38.4539 104.779 38.4879 104.607 38.4879H94.5904C94.6099 38.4879 94.5397 38.4799 94.454 38.4799H94.4559ZM174.439 32.06V34.0709C174.439 34.1319 174.543 34.2369 174.303 34.2549C174.098 34.2729 173.944 34.2639 173.823 34.1409C173.48 33.8069 173.155 33.4729 172.728 33.1749C172.026 32.6829 171.067 32.393 169.834 32.393C168.652 32.393 167.814 32.6829 167.266 33.2099C166.89 33.5869 166.701 34.0089 166.615 34.4299C166.479 35.0799 166.444 35.722 166.668 36.372C166.855 36.899 167.163 37.3999 167.9 37.8039C168.773 38.2779 169.851 38.3659 171.032 38.2249C171.251 38.2021 171.448 38.1419 171.591 38.0541C171.734 37.9664 171.814 37.8563 171.82 37.7419C171.855 37.3639 171.872 36.9959 171.839 36.6179C171.804 36.2749 171.41 36.0909 170.724 36.0559C170.56 36.045 170.395 36.039 170.229 36.0379C170.005 36.0379 170.023 35.9589 170.023 35.8879C170.023 35.8099 170.023 35.7569 170.245 35.7569H175.964C176.12 35.7569 176.186 35.7919 176.168 35.8619C176.153 35.9319 176.238 36.0289 175.981 36.0469C175.775 36.0639 175.552 36.0729 175.348 36.0999C175.176 36.1156 175.019 36.159 174.898 36.2237C174.778 36.2885 174.701 36.3712 174.679 36.4599C174.639 36.5847 174.617 36.7106 174.611 36.837C174.593 37.233 174.611 37.627 174.593 38.0319C174.593 38.076 174.508 38.1549 174.439 38.1719C173.036 38.4099 171.615 38.6209 170.108 38.6379C168.344 38.6559 166.717 38.4179 165.366 37.8039C164.317 37.3313 163.642 36.6783 163.466 35.9679C163.227 35.2369 163.43 34.4859 164.048 33.816C164.869 32.937 166.222 32.3839 168.089 32.1469C169.596 31.9539 171.032 32.0769 172.436 32.3749C172.592 32.4099 172.763 32.437 172.933 32.455C173.397 32.498 173.654 32.4369 173.841 32.2169C173.977 32.0149 173.977 32.0149 174.439 32.0589V32.06ZM216.904 32.1559H219.625C220.515 32.1559 221.371 32.2169 222.194 32.4109C223.375 32.7009 224.008 33.2269 223.94 33.8949C223.87 34.7119 223.049 35.2389 221.439 35.4929C220.447 35.6519 219.436 35.6599 218.426 35.6599C217.845 35.6599 217.929 35.6169 217.929 35.9059V37.5049C217.929 37.9179 218.254 38.0849 219.042 38.1459C219.128 38.1549 219.213 38.155 219.299 38.1639C219.59 38.1719 219.521 38.2869 219.521 38.3739C219.521 38.4709 219.385 38.462 219.266 38.462H213.752C213.615 38.462 213.496 38.4719 213.496 38.3659C213.512 38.2779 213.461 38.1809 213.719 38.1719C213.787 38.1719 213.855 38.1639 213.923 38.1549C214.539 38.1109 214.9 37.9269 214.951 37.6019C214.951 37.5749 214.968 37.5399 214.968 37.5049C214.968 36.0469 214.986 34.589 214.968 33.122C214.968 32.674 214.592 32.4809 213.719 32.4369C213.461 32.4279 213.496 32.349 213.479 32.261C213.461 32.156 213.58 32.1379 213.752 32.1379C214.814 32.1559 215.859 32.1559 216.904 32.1559ZM217.913 34.018V35.1509C217.913 35.2479 217.964 35.2829 218.169 35.2829C218.597 35.2649 219.009 35.2649 219.436 35.2389C220.104 35.1949 220.549 35.0019 220.72 34.6589C220.942 34.2369 220.942 33.8069 220.806 33.3769C220.634 32.7879 219.915 32.4809 218.769 32.4979C218.186 32.5079 217.929 32.638 217.929 32.928C217.913 33.298 217.913 33.658 217.913 34.018Z" fill="#3C3B3D"/>
<path d="M202.725 34.966V33.376C202.725 33.262 202.708 33.148 202.69 33.034C202.605 32.674 202.246 32.498 201.542 32.463C201.252 32.445 201.133 32.357 201.252 32.217C201.269 32.19 201.355 32.173 201.406 32.173C201.509 32.164 201.613 32.173 201.714 32.173H207.039C207.347 32.173 207.382 32.19 207.364 32.348C207.364 32.428 207.296 32.454 207.142 32.463C206.902 32.4733 206.662 32.488 206.423 32.507C206.237 32.5249 206.066 32.5729 205.937 32.6439C205.808 32.715 205.726 32.8054 205.704 32.902C205.664 33.018 205.641 33.1353 205.636 33.253C205.636 34.395 205.618 35.537 205.636 36.679C205.636 36.889 205.721 37.109 205.858 37.311C206.133 37.706 206.731 37.952 207.536 38.041C208.323 38.128 209.076 38.093 209.813 37.917C210.737 37.697 211.097 37.277 211.269 36.793C211.352 36.565 211.388 36.328 211.388 36.099C211.405 35.151 211.388 34.193 211.388 33.244C211.388 33.165 211.37 33.095 211.352 33.016C211.284 32.673 210.994 32.506 210.31 32.463C210.145 32.4523 209.979 32.4463 209.813 32.445C209.59 32.445 209.608 32.366 209.608 32.287C209.608 32.207 209.641 32.155 209.83 32.155H213.424C213.596 32.155 213.647 32.199 213.631 32.269C213.613 32.339 213.717 32.445 213.442 32.445C212.551 32.454 212.193 32.761 212.193 33.157C212.175 34.079 212.193 35.001 212.175 35.923C212.175 36.345 212.124 36.767 211.867 37.179C211.438 37.899 210.514 38.356 209.076 38.515C207.655 38.673 206.234 38.655 204.899 38.33C203.529 37.996 202.776 37.425 202.725 36.644C202.708 36.099 202.725 35.537 202.725 34.966ZM135.768 38.462V38.313C135.751 38.225 135.819 38.19 135.99 38.181C136.191 38.1726 136.383 38.1351 136.544 38.073C136.704 38.0108 136.828 37.9266 136.899 37.83C137.292 37.364 137.669 36.89 138.045 36.416C139.175 34.976 140.306 33.544 141.436 32.103C141.505 32.023 141.588 31.989 141.76 31.989C141.949 31.989 142.07 32.006 142.154 32.112C143.541 33.772 144.927 35.423 146.315 37.074C146.52 37.312 146.709 37.549 146.913 37.777C147.103 37.997 147.41 38.155 147.908 38.199C148.13 38.216 148.13 38.252 148.062 38.471H142.206C142.206 38.427 142.206 38.374 142.189 38.331C142.171 38.243 142.239 38.208 142.411 38.199C142.6 38.199 142.772 38.181 142.959 38.172C143.506 38.129 143.746 37.962 143.592 37.698C143.387 37.364 143.13 37.039 142.873 36.706C142.857 36.67 142.736 36.644 142.651 36.644H138.955C138.887 36.644 138.748 36.67 138.733 36.706C138.493 37.031 138.236 37.356 138.047 37.689C137.893 37.979 138.133 38.129 138.715 38.172C138.92 38.19 139.144 38.199 139.366 38.208C139.589 38.216 139.503 38.304 139.52 38.374C139.538 38.436 139.501 38.489 139.349 38.489C138.185 38.489 137.02 38.489 135.856 38.479C135.838 38.479 135.823 38.471 135.77 38.462H135.768ZM139.107 36.222H142.499C141.914 35.493 141.333 34.791 140.768 34.088C140.75 34.088 140.717 34.097 140.7 34.097C140.167 34.8 139.637 35.502 139.107 36.222ZM135.595 37.26C134.807 37.76 133.866 38.146 132.72 38.392C129.946 39.007 125.941 38.427 124.689 36.653C123.783 35.371 124.091 34.15 125.837 33.078C126.779 32.508 128.028 32.191 129.467 32.077C130.751 31.972 131.983 32.068 133.182 32.314C133.439 32.367 133.712 32.402 133.969 32.419C134.295 32.437 134.499 32.367 134.62 32.218C134.774 32.024 134.774 32.024 135.254 32.051V34.238C134.842 34.299 134.774 34.273 134.636 34.08C134.141 33.403 133.336 32.859 132.018 32.551C131.006 32.314 129.979 32.296 129.022 32.648C128.404 32.876 128.079 33.21 127.857 33.561C127.395 34.343 127.36 35.151 127.48 35.959C127.549 36.363 127.703 36.759 128.011 37.136C128.697 37.944 130.065 38.226 131.607 38.102C132.839 38.006 133.764 37.646 134.62 37.215C135.082 36.987 135.065 36.978 135.544 37.215C135.562 37.225 135.562 37.233 135.595 37.259V37.26Z" fill="#3C3B3D"/>
<path d="M148.007 38.523C148.007 38.47 148.007 38.443 147.991 38.409C147.956 38.295 148.025 38.233 148.264 38.233C148.401 38.233 148.537 38.224 148.676 38.207C149.241 38.137 149.498 37.987 149.566 37.68C149.584 37.61 149.584 37.54 149.584 37.469V33.323C149.584 33.173 149.549 33.024 149.463 32.883C149.291 32.612 148.847 32.533 148.332 32.506C147.991 32.497 147.939 32.462 147.991 32.286C148.007 32.26 148.093 32.234 148.145 32.216C148.178 32.208 148.249 32.216 148.299 32.216H153.966C154.291 32.216 154.309 32.226 154.291 32.383C154.291 32.471 154.223 32.497 154.051 32.506C153.805 32.5163 153.559 32.531 153.315 32.55C152.837 32.594 152.597 32.752 152.545 32.98C152.511 33.1112 152.494 33.2435 152.494 33.376V37.425C152.494 37.575 152.527 37.724 152.595 37.865C152.631 37.9438 152.715 38.0146 152.835 38.0668C152.956 38.1189 153.106 38.1495 153.264 38.154C154.599 38.215 155.901 38.163 156.996 37.688C157.749 37.355 158.178 36.915 158.521 36.45C158.589 36.362 158.64 36.318 158.844 36.336C159.068 36.362 159.137 36.406 159.086 36.529C158.86 37.1254 158.643 37.7227 158.435 38.321C158.367 38.514 158.367 38.514 157.989 38.514H148.35C148.249 38.523 148.145 38.523 148.009 38.523H148.007ZM123.783 38.524H117.791C117.635 38.524 117.481 38.541 117.481 38.41C117.481 38.295 117.534 38.243 117.774 38.243C118.013 38.243 118.253 38.216 118.475 38.181C118.649 38.1593 118.804 38.1105 118.921 38.0413C119.038 37.9722 119.11 37.886 119.126 37.795C119.16 37.672 119.177 37.54 119.177 37.417V33.35C119.174 33.2531 119.162 33.1563 119.142 33.06C119.074 32.726 118.733 32.56 118.082 32.516C117.963 32.5038 117.842 32.5004 117.721 32.506C117.516 32.516 117.466 32.463 117.466 32.358C117.466 32.243 117.534 32.208 117.756 32.218H123.526C123.715 32.218 123.818 32.235 123.818 32.348C123.818 32.454 123.783 32.507 123.543 32.516C122.413 32.542 122.105 32.709 122.105 33.298V37.495C122.122 38.013 122.413 38.189 123.422 38.25C123.869 38.268 123.869 38.277 123.783 38.523V38.524ZM228.337 24.137H15.4607V27.607H228.337V24.137Z" fill="#3C3B3D"/>
</svg>
