<svg width="242" height="35" viewBox="0 0 242 35" fill="none" xmlns="http://www.w3.org/2000/svg">
<path d="M42.6364 34.055H42.05C34.9575 34.055 27.8651 34.042 20.7763 34.064C18.8068 34.07 17.2338 33.707 15.847 32.968C11.5785 30.695 7.26716 28.446 2.97445 26.186C2.44577 25.907 1.88731 25.638 1.41821 25.331C-0.545718 24.051 -0.460087 22.134 1.64345 20.919C2.88479 20.2011 4.16995 19.5054 5.49684 18.833C8.04342 17.544 11.9917 17.625 14.5886 18.996C15.9978 19.74 17.3958 20.489 18.7957 21.239C22.8724 23.422 26.9492 25.607 31.0316 27.789C34.777 29.791 38.528 31.791 42.2827 33.789C42.413 33.859 42.5954 33.899 42.7537 33.954C42.7127 33.987 42.6755 34.021 42.6364 34.055ZM25.6703 0.00301422H26.1636C32.1745 0.00301422 38.1873 -0.00698578 44.1982 0.0110142C45.5639 0.0204023 46.9268 0.080882 48.2769 0.192014C50.44 0.362014 52.2754 0.895014 53.8596 1.71901C57.1825 3.44801 60.5853 5.13101 63.897 6.86601C66.0154 7.97601 66.6465 9.35401 65.7437 10.865C64.8315 12.394 62.8508 13.341 59.8742 13.645C59.6259 13.6714 59.3734 13.6848 59.1203 13.685C57.1787 13.683 55.2334 13.707 53.2974 13.66C51.5848 13.618 50.0863 13.232 48.8744 12.583C41.5269 8.63901 34.1962 4.68701 26.8524 0.740014C26.4373 0.517014 25.9775 0.317014 25.5363 0.106014L25.6703 0.00301422ZM31.5398 6.35801C30.6183 6.83301 29.7117 7.28301 28.8405 7.75201C24.1532 10.276 19.4751 12.805 14.7878 15.331C11.9657 16.851 7.68228 16.788 4.98677 15.196C3.9085 14.5586 2.82196 13.9253 1.72722 13.296C-0.581087 11.97 -0.594118 9.76201 1.80168 8.47601C5.27717 6.60901 8.8141 4.77701 12.3231 2.93001C13.5647 2.27601 14.8027 1.62001 16.0536 0.970014C17.0086 0.475014 18.1013 0.110014 19.4528 0.0280142C19.6389 0.0160142 19.9033 0.0480142 20.0299 0.116014C23.7643 2.12594 27.4936 4.1386 31.2177 6.15401C31.2978 6.19801 31.3666 6.24901 31.5379 6.35701L31.5398 6.35801ZM37.1895 27.97C37.8634 27.633 38.5112 27.328 39.1199 27C42.2213 25.331 45.3151 23.657 48.4127 21.985C50.0695 21.092 52.0856 20.653 54.4181 20.645C56.14 20.639 57.8731 20.598 59.5801 20.682C62.9644 20.847 65.0698 21.86 65.8554 23.645C66.5888 25.309 65.7958 26.765 63.4763 27.935C60.2652 29.553 56.9926 31.138 53.7405 32.735C52.4318 33.377 50.9333 33.829 49.1778 34.013C48.7404 34.059 48.409 34.026 48.0609 33.836C44.6133 31.966 41.1453 30.109 37.681 28.248C37.5525 28.178 37.4297 28.105 37.1895 27.97ZM143.098 2.00201C143.72 2.07301 144.347 2.13301 144.963 2.21901C149.165 2.80201 152.147 4.74901 152.313 7.08401C152.404 8.35201 152.411 9.62501 152.316 10.892C152.125 13.497 148.549 15.576 143.751 15.946C141.149 16.147 138.617 16.036 136.275 15.356C132.91 14.38 131.238 12.803 131.045 10.786C130.933 9.61901 130.983 8.44601 131.032 7.27701C131.149 4.53501 134.824 2.38101 139.883 2.05701C140.013 2.04801 140.136 2.02101 140.263 2.00301L143.098 2.00201ZM148.327 9.01101L148.249 9.00901V7.56601C148.245 5.49101 145.926 4.14401 142.097 3.99601C138.331 3.85001 135.445 5.11001 135.203 7.12501C135.045 8.42401 135.114 9.73501 135.22 11.039C135.285 11.846 135.955 12.56 137.069 13.129C138.467 13.843 140.185 14.064 142.054 14.037C145.161 13.992 147.527 12.955 148.052 11.313C148.294 10.559 148.243 9.77901 148.327 9.01101ZM166.71 2.00201C167.588 2.11001 168.484 2.19101 169.346 2.33201C171.689 2.69956 173.715 3.50134 175.063 4.59501L172.289 5.90201C171.533 5.54801 170.844 5.17101 170.059 4.86701C167.639 3.93301 164.973 3.75401 162.169 4.25001C161.518 4.37182 160.922 4.56644 160.422 4.82101C159.277 5.39901 159.39 6.22901 160.615 6.76101C161.551 7.16901 162.678 7.37101 163.798 7.56901C165.848 7.93201 167.91 8.27401 169.945 8.65901C170.669 8.79601 171.351 9.01101 172.011 9.22601C175.74 10.442 175.398 12.581 173.981 13.828C172.622 15.025 170.498 15.621 168.024 15.882C163.837 16.325 160.027 15.813 156.568 14.496C155.909 14.244 155.28 13.972 154.614 13.7L157.257 12.038C157.443 12.118 157.611 12.188 157.773 12.26C159.474 13.007 161.274 13.656 163.473 13.899C165.059 14.074 166.652 14.126 168.233 13.874C168.973 13.755 169.629 13.557 170.124 13.227C171.276 12.459 171.047 11.415 169.472 10.92C168.437 10.595 167.272 10.377 166.127 10.173C164.24 9.83601 162.305 9.57701 160.425 9.23301C158.973 8.96801 157.652 8.55701 156.691 7.88801C155.019 6.72601 155.198 4.91601 157.097 3.70401C158.549 2.77501 160.485 2.32801 162.646 2.10901C162.989 2.07501 163.329 2.03701 163.67 2.00201H166.71ZM190.016 2.00001C190.67 2.07401 191.331 2.13301 191.976 2.22101C194.443 2.55901 196.509 3.23301 198.049 4.34001C198.157 4.41801 198.255 4.50101 198.378 4.59801L195.558 5.92401C195.121 5.69001 194.719 5.44801 194.266 5.23601C191.71 4.03401 188.793 3.69901 185.545 4.22801C184.743 4.35901 184.026 4.57901 183.503 4.94801C182.687 5.52401 182.753 6.25601 183.827 6.69001C184.607 7.00501 185.521 7.25401 186.442 7.43201C188.423 7.81401 190.463 8.10801 192.446 8.48601C193.444 8.67972 194.404 8.92627 195.312 9.22201C198.961 10.396 198.81 12.529 197.232 13.885C195.977 14.964 194.056 15.545 191.816 15.824C187.485 16.364 183.523 15.87 179.914 14.506C179.242 14.252 178.603 13.972 177.931 13.698L180.575 12.038C180.902 12.18 181.213 12.314 181.526 12.447C183.253 13.181 185.113 13.769 187.336 13.954C188.646 14.063 189.955 14.089 191.258 13.92C192.896 13.708 193.892 13.16 194.112 12.36C194.251 11.843 193.944 11.413 193.205 11.075C192.12 10.578 190.778 10.382 189.454 10.166C187.552 9.85601 185.638 9.56901 183.75 9.23601C182.62 9.04042 181.581 8.71718 180.703 8.28801C178.897 7.39801 178.357 5.99201 179.333 4.68701C180.256 3.45101 182.058 2.73401 184.337 2.33301C185.193 2.18301 186.094 2.10901 186.975 2.00001H190.016ZM97.0938 2.00201C97.7007 2.07501 98.315 2.12901 98.9088 2.22401C101.956 2.71401 104.237 3.70201 105.657 5.24901C105.867 5.47901 105.808 5.58801 105.357 5.68901C104.38 5.90901 103.427 6.15901 102.591 6.36601C101.79 5.85201 101.132 5.31501 100.271 4.89601C97.535 3.56501 92.8142 3.70401 90.4742 5.14901C89.3201 5.85901 88.877 6.71801 88.8509 7.63801C88.8212 8.63501 88.7914 9.63601 88.8845 10.631C89.0799 12.669 91.6768 13.982 95.4892 14.036C98.6426 14.08 100.875 13.317 102.282 11.82L102.505 11.58L105.91 12.444C105.607 12.75 105.357 13.047 105.031 13.317C103.002 15.008 100.091 15.902 96.3697 16.017C93.7822 16.099 91.3193 15.842 89.1376 15.047C86.3714 14.037 84.9808 12.576 84.7835 10.824C84.6356 9.53804 84.6611 8.24801 84.8598 6.96401C85.2563 4.47801 88.8528 2.49601 93.4359 2.10401C93.7449 2.07701 94.0502 2.03401 94.3592 2.00001C95.2714 2.00201 96.1835 2.00201 97.0957 2.00201H97.0938ZM241.998 18.284C241.737 18.492 241.462 18.695 241.214 18.908C238.507 21.238 235.799 23.567 233.107 25.901C232.956 26.0387 232.874 26.1952 232.871 26.355C232.854 27.925 232.861 29.495 232.861 31.065V31.385H228.773V31.06C228.773 29.518 228.768 27.976 228.781 26.433C228.791 26.2079 228.674 25.9864 228.444 25.798C225.549 23.36 222.67 20.918 219.786 18.476C219.697 18.402 219.617 18.324 219.497 18.218C219.717 18.212 219.879 18.203 220.043 18.203C221.242 18.202 222.439 18.211 223.639 18.198C224.025 18.193 224.241 18.255 224.442 18.437C226.508 20.297 228.593 22.151 230.674 24.007C230.758 24.082 230.853 24.154 230.987 24.263L232.5 22.856C234.086 21.381 235.676 19.906 237.249 18.428C237.433 18.255 237.638 18.196 238.007 18.198C239.338 18.202 240.669 18.185 242.002 18.176C241.998 18.212 241.998 18.248 241.998 18.284ZM171.405 27.457V18.226H175.37V31.41C174.735 31.41 174.076 31.372 173.437 31.418C172.482 31.488 171.933 31.275 171.371 30.868C168.054 28.464 164.671 26.086 161.324 23.693C160.636 23.203 160.003 22.689 159.262 22.12V31.39H155.267V18.208C156.423 18.208 157.568 18.203 158.711 18.216C158.834 18.217 158.977 18.314 159.07 18.384C163.098 21.374 167.121 24.366 171.146 27.357C171.194 27.394 171.246 27.429 171.297 27.465L171.405 27.457ZM109.142 2.40901H109.743C113.019 2.40901 116.296 2.40401 119.572 2.41001C121.097 2.41301 122.601 2.50501 124.032 2.81401C126.424 3.33201 127.766 4.37801 127.774 5.76201C127.776 6.19601 127.774 6.63701 127.644 7.06301C127.316 8.12201 126.043 8.74301 124.211 9.07201C123.926 9.12301 123.634 9.16401 123.284 9.21901C123.74 9.27701 124.138 9.31701 124.522 9.37901C126.322 9.67301 127.444 10.382 127.593 11.386C127.688 12.036 127.686 12.69 127.69 13.343C127.692 13.923 127.887 14.443 128.854 14.798C128.943 14.831 129.002 14.918 129.006 14.98C129.025 15.206 129.014 15.433 129.014 15.725C127.859 15.692 126.724 15.71 125.624 15.615C124.458 15.513 123.889 15.012 123.766 14.431C123.598 13.65 123.598 12.859 123.524 12.072C123.502 11.855 123.49 11.636 123.425 11.422C123.243 10.806 122.584 10.402 121.46 10.242C120.972 10.1688 120.47 10.1278 119.965 10.12C117.803 10.107 115.642 10.114 113.481 10.115C113.401 10.115 113.319 10.122 113.198 10.127V15.593H109.14V2.41001L109.142 2.40901ZM113.22 8.41701H113.796C115.668 8.41701 117.543 8.42001 119.416 8.41501C119.853 8.41501 120.292 8.40001 120.726 8.37001C122.372 8.25901 123.379 7.72201 123.585 6.83701C123.641 6.60501 123.623 6.36701 123.623 6.13101C123.626 5.10401 122.716 4.47001 120.797 4.40501C118.308 4.32101 115.808 4.36201 113.312 4.35001C113.284 4.35001 113.256 4.36601 113.22 4.37801V8.41801V8.41701ZM214.825 25.014C215.21 25.06 215.506 25.093 215.797 25.134C217.889 25.426 219.101 26.217 219.192 27.381C219.25 28.114 219.248 28.849 219.298 29.584C219.322 29.944 219.605 30.261 220.153 30.472C220.505 30.608 220.609 30.76 220.572 30.976C220.545 31.135 220.568 31.296 220.568 31.444C219.43 31.444 218.343 31.5 217.286 31.428C216.139 31.351 215.402 30.846 215.264 30.103C215.128 29.373 215.125 28.638 215.06 27.905C215.039 27.679 215.026 27.452 214.968 27.228C214.795 26.568 214.071 26.172 212.882 26.018C212.522 25.973 212.152 25.922 211.785 25.921C209.456 25.912 207.129 25.916 204.724 25.916V31.39H200.681V18.214C200.858 18.21 201.037 18.202 201.215 18.202C204.49 18.202 207.766 18.195 211.042 18.204C212.738 18.208 214.41 18.306 215.974 18.704C218.077 19.24 219.187 20.143 219.289 21.381C219.332 21.904 219.326 22.441 219.147 22.951C218.764 24.045 217.34 24.624 215.441 24.92L214.825 25.015V25.014ZM204.756 24.209H205.327C207.304 24.209 209.279 24.212 211.255 24.207C211.643 24.2057 212.031 24.1883 212.414 24.155C213.885 24.025 214.87 23.555 215.078 22.797C215.201 22.355 215.184 21.89 215.093 21.443C214.991 20.943 214.447 20.548 213.557 20.379C212.847 20.241 212.101 20.1621 211.346 20.145C209.27 20.114 207.193 20.134 205.115 20.135C205.002 20.135 204.888 20.143 204.758 20.148L204.756 24.208V24.209ZM129.419 24.796C129.287 25.726 129.315 26.671 128.989 27.58C128.144 29.918 124.479 31.59 120.06 31.789C117.688 31.896 115.396 31.769 113.271 31.172C110.292 30.335 108.505 28.982 108.107 27.213C107.734 25.55 107.671 23.855 108.163 22.193C108.859 19.823 112.39 18.113 116.839 17.846C119.393 17.693 121.869 17.816 124.159 18.493C127.184 19.386 128.813 20.801 129.19 22.617C129.339 23.333 129.215 24.066 129.215 24.791L129.419 24.796ZM125.076 24.791H125.162C125.162 24.256 125.184 23.72 125.157 23.185C125.112 22.306 124.635 21.507 123.518 20.844C122.288 20.113 120.691 19.817 118.905 19.784C114.428 19.704 112.137 21.329 112.079 23.169C112.047 24.2576 112.047 25.3464 112.079 26.435C112.107 27.387 112.684 28.235 113.974 28.908C115.343 29.623 117.044 29.842 118.9 29.828C122.15 29.806 124.686 28.642 125.052 26.909C125.201 26.212 125.076 25.498 125.076 24.791ZM131.934 18.217H136.056V18.557C136.056 21.362 136.048 24.166 136.061 26.969C136.065 28.071 136.76 28.992 138.731 29.479C139.407 29.647 140.177 29.762 140.916 29.781C142.033 29.811 143.187 29.806 144.282 29.691C146.404 29.467 147.644 28.656 147.856 27.486C147.912 27.18 147.94 26.87 147.942 26.563C147.947 23.895 147.945 21.227 147.945 18.559V18.219H152.033V26.925C152.033 29.521 149.142 31.338 144.371 31.725C141.845 31.93 139.349 31.878 136.964 31.331C134.118 30.677 132.545 29.482 132.063 27.859C131.974 27.5272 131.933 27.1922 131.94 26.857C131.931 24.089 131.934 21.322 131.934 18.554V18.217ZM105.832 21.357L102.528 22.179C101.943 21.759 101.441 21.328 100.811 20.958C98.1642 19.398 93.0915 19.381 90.5282 20.912C89.3275 21.629 88.8789 22.505 88.8491 23.444C88.8174 24.441 88.7932 25.441 88.8863 26.436C89.0725 28.47 91.7531 29.801 95.5562 29.832C98.6929 29.857 100.893 29.094 102.286 27.609L102.513 27.376L105.869 28.229C105.298 28.9974 104.422 29.6898 103.302 30.258C99.2253 32.368 92.5442 32.176 88.9198 30.764C86.7623 29.924 85.3904 28.787 84.992 27.394C84.4987 25.661 84.4242 23.898 85.0534 22.169C85.9116 19.814 89.5863 18.109 94.0353 17.844C97.2074 17.655 100.111 17.976 102.664 19.043C103.943 19.5693 104.965 20.2546 105.642 21.04C105.698 21.105 105.752 21.172 105.798 21.24C105.817 21.264 105.813 21.293 105.832 21.357ZM185.986 20.207H177.994V18.222H198.08V20.192H190.087V31.388H185.988V20.208L185.986 20.207Z" fill="#3C3B3D"/>
</svg>
