<svg width="370" height="38" viewBox="0 0 370 38" fill="none" xmlns="http://www.w3.org/2000/svg">
<g clip-path="url(#clip0_1_255)">
<path fill-rule="evenodd" clip-rule="evenodd" d="M119.737 32.802H119.463C117.791 32.802 115.794 32.908 115.794 33.994C115.794 34.644 116.536 34.885 117.425 34.885C119.692 34.885 119.737 33.635 119.737 33.101V32.802ZM119.828 34.498H119.8C119.369 35.09 118.28 35.41 117.316 35.41C115.093 35.41 114.737 34.46 114.737 34.013C114.737 32.353 117.528 32.276 119.553 32.276H119.737V32.025C119.737 31.182 119.263 30.755 117.96 30.755C117.148 30.755 116.382 30.871 115.658 31.163V30.569C116.391 30.3629 117.17 30.2485 117.96 30.231C119.893 30.231 120.705 30.781 120.705 32.071V34.253C120.705 34.653 120.705 34.953 120.781 35.293H119.828V34.498ZM122.9 31.511C122.9 31.131 122.9 30.746 122.839 30.347H123.772V31.23H123.804C124.125 30.782 124.712 30.23 126.332 30.23C128.268 30.23 129.002 31.044 129.002 32.133V35.293H128.033V32.287C128.033 31.355 127.515 30.755 126.183 30.755C124.416 30.755 123.865 31.735 123.865 32.559V35.294H122.9V31.51V31.511ZM140.143 29.163L137.809 32.898H142.456L140.143 29.163ZM139.619 28.524H140.814L145.064 35.294H143.959L142.809 33.479H137.413L136.259 35.293H135.231L139.619 28.523V28.525V28.524ZM146.708 28.524H148.35L152.261 34.479L156.186 28.525H157.702V35.294H156.648V29.194H156.616L152.72 35.292H151.815L147.798 29.193H147.768V35.292H146.711V28.522L146.708 28.525V28.524ZM160.332 28.524H161.664L167.104 34.479H167.14V28.525H168.197V35.294H166.771L161.418 29.456H161.386V35.294H160.332V28.524ZM175.546 28.524H176.605V31.52H182.017V28.525H183.075V35.294H182.019V32.104H176.605V35.293H175.548V28.523L175.546 28.525V28.524ZM190.533 32.47C190.533 31.606 189.984 30.755 188.541 30.755C187.114 30.755 186.238 31.655 186.238 32.471H190.533V32.47ZM191.006 35.136C190.277 35.3147 189.51 35.407 188.737 35.409C186.147 35.409 185.184 34.303 185.184 32.819C185.184 31.307 186.502 30.231 188.478 30.231C190.685 30.231 191.591 31.356 191.591 32.684V32.994H186.238C186.238 34.044 187.13 34.886 188.816 34.886C189.519 34.886 190.549 34.7 191.006 34.517V35.136ZM197.929 32.802H197.655C195.984 32.802 193.986 32.908 193.986 33.994C193.986 34.644 194.722 34.885 195.611 34.885C197.881 34.885 197.929 33.635 197.929 33.101V32.802ZM198.019 34.498H197.99C197.56 35.09 196.471 35.41 195.503 35.41C193.282 35.41 192.928 34.46 192.928 34.013C192.928 32.353 195.721 32.276 197.746 32.276H197.929V32.025C197.929 31.182 197.454 30.755 196.149 30.755C195.341 30.755 194.568 30.871 193.85 31.163V30.569C194.582 30.3633 195.36 30.2489 196.149 30.231C198.082 30.231 198.895 30.781 198.895 32.071V34.253C198.895 34.653 198.895 34.953 198.971 35.293H198.019V34.498ZM201.273 35.293H202.242V28.019H201.273V35.293ZM208.148 30.871H206.371V34.07C206.371 34.519 206.631 34.886 207.414 34.886C207.781 34.886 208.026 34.837 208.301 34.768L208.363 35.273C207.981 35.3601 207.583 35.406 207.181 35.409C205.465 35.409 205.402 34.662 205.402 33.761V30.871H203.871V30.347H205.402V29.152L206.371 28.942V30.346H208.148V30.871ZM209.995 28.019H210.959V31.182H210.99C211.402 30.638 212.277 30.231 213.425 30.231C215.531 30.231 216.093 31.112 216.093 32.336V35.293H215.128V32.345C215.128 31.492 214.868 30.755 213.275 30.755C211.554 30.755 210.959 31.782 210.959 32.645V35.293H209.995V28.019ZM223.721 31.006C223.199 30.863 222.571 30.755 222.047 30.755C220.164 30.755 219.105 31.618 219.105 32.819C219.105 33.945 220.177 34.886 221.941 34.886C222.543 34.8795 223.139 34.8041 223.705 34.663L223.798 35.234C223.14 35.379 222.528 35.408 221.791 35.408C219.271 35.408 218.049 34.197 218.049 32.819C218.049 31.299 219.596 30.231 221.913 30.231C222.848 30.231 223.52 30.365 223.798 30.424L223.721 31.006ZM230.084 32.802H229.807C228.134 32.802 226.142 32.908 226.142 33.994C226.142 34.644 226.877 34.885 227.767 34.885C230.038 34.885 230.084 33.635 230.084 33.101V32.802ZM230.176 34.498H230.144C229.716 35.09 228.624 35.41 227.658 35.41C225.435 35.41 225.082 34.46 225.082 34.013C225.082 32.353 227.873 32.276 229.899 32.276H230.084V32.025C230.084 31.182 229.608 30.755 228.302 30.755C227.49 30.755 226.723 30.871 226.003 31.163V30.569C226.735 30.363 227.513 30.2486 228.302 30.231C230.235 30.231 231.048 30.781 231.048 32.071V34.253C231.048 34.653 231.048 34.953 231.124 35.293H230.176V34.498ZM233.242 31.451C233.242 30.909 233.242 30.706 233.18 30.347H234.146V31.299H234.181C234.534 30.746 235.191 30.231 236.189 30.231C236.419 30.231 236.692 30.261 236.865 30.289V30.928C236.633 30.8881 236.396 30.869 236.158 30.871C234.623 30.871 234.211 31.956 234.211 32.848V35.293H233.242V31.45V31.451ZM243.139 32.471C243.139 31.606 242.585 30.755 241.141 30.755C239.721 30.755 238.844 31.655 238.844 32.471H243.139ZM243.613 35.136C242.885 35.3146 242.118 35.4069 241.346 35.409C238.755 35.409 237.785 34.303 237.785 32.819C237.785 31.307 239.108 30.231 241.085 30.231C243.291 30.231 244.199 31.356 244.199 32.684V32.994H238.844C238.844 34.044 239.736 34.886 241.421 34.886C242.128 34.886 243.155 34.7 243.613 34.517V35.136ZM255.951 31.006C255.426 30.863 254.795 30.755 254.278 30.755C252.392 30.755 251.333 31.618 251.333 32.819C251.333 33.945 252.403 34.886 254.169 34.886C254.781 34.886 255.349 34.798 255.931 34.663L256.024 35.234C255.365 35.379 254.748 35.408 254.017 35.408C251.5 35.408 250.275 34.197 250.275 32.819C250.275 31.299 251.822 30.231 254.137 30.231C255.072 30.231 255.747 30.365 256.024 30.424L255.951 31.006ZM260.677 34.886C262.362 34.886 263.265 33.964 263.265 32.819C263.265 31.677 262.362 30.755 260.677 30.755C258.986 30.755 258.081 31.677 258.081 32.819C258.081 33.964 258.986 34.886 260.677 34.886ZM260.677 30.231C263.206 30.231 264.325 31.473 264.325 32.819C264.325 34.167 263.206 35.409 260.677 35.409C258.144 35.409 257.027 34.167 257.027 32.819C257.027 31.473 258.144 30.231 260.677 30.231ZM275.742 35.293V32.005C275.742 31.307 275.33 30.755 274.085 30.755C273.027 30.755 271.984 31.326 271.984 32.559V35.294H271.016V32.005C271.016 31.307 270.605 30.755 269.364 30.755C268.307 30.755 267.265 31.326 267.265 32.559V35.294H266.298V31.51C266.298 31.13 266.298 30.745 266.234 30.346H267.167V31.181L267.202 31.191C267.51 30.852 267.965 30.23 269.637 30.23C270.329 30.23 271.467 30.414 271.711 31.276H271.738C272.091 30.694 273.01 30.23 274.237 30.23C275.819 30.23 276.711 30.927 276.711 31.889V35.292H275.742V35.293ZM282.386 30.755C280.668 30.755 280.069 31.916 280.069 32.819C280.069 33.721 280.669 34.886 282.386 34.886C284.225 34.886 284.698 33.78 284.698 32.819C284.698 31.859 284.225 30.755 282.386 30.755ZM279.103 30.347H280.069L280.01 31.249H280.038C280.285 30.979 280.882 30.231 282.538 30.231C284.84 30.231 285.759 31.317 285.759 32.819C285.759 34.284 284.686 35.409 282.538 35.409C281.312 35.409 280.576 35.089 280.1 34.449H280.069V37.331H279.103V30.346V30.347ZM292.26 32.802H291.98C290.315 32.802 288.318 32.908 288.318 33.994C288.318 34.644 289.053 34.885 289.947 34.885C292.214 34.885 292.26 33.635 292.26 33.101V32.802ZM292.349 34.498H292.322C291.89 35.09 290.804 35.41 289.835 35.41C287.612 35.41 287.259 34.46 287.259 34.013C287.259 32.353 290.053 32.276 292.076 32.276H292.26V32.025C292.26 31.182 291.784 30.755 290.482 30.755C289.667 30.755 288.901 30.871 288.181 31.163V30.569C288.914 30.3629 289.692 30.2485 290.482 30.231C292.415 30.231 293.226 30.781 293.226 32.071V34.253C293.226 34.653 293.226 34.953 293.3 35.293H292.349V34.498ZM295.603 31.511C295.603 31.133 295.603 30.746 295.54 30.348H296.473V31.232H296.506C296.828 30.782 297.411 30.232 299.033 30.232C300.966 30.232 301.701 31.044 301.701 32.134V35.294H300.731V32.288C300.731 31.356 300.216 30.756 298.881 30.756C297.119 30.756 296.567 31.736 296.567 32.56V35.294H295.603V31.511ZM306.361 36.033C305.994 36.709 305.444 37.388 304.352 37.388C304.002 37.3869 303.653 37.3611 303.31 37.311L303.4 36.788C303.588 36.825 303.771 36.866 304.127 36.866C304.955 36.866 305.226 36.427 305.533 35.789L305.733 35.351L302.957 30.348H304.014L306.205 34.479L306.192 34.469H306.224L308.477 30.349H309.491L306.363 36.033H306.361ZM322.263 22.424H330.33L335.937 16.326L331.641 12.198L322.263 22.425V22.424ZM339.729 12.201L331.641 12.198L342.284 22.418L346.386 18.61L339.729 12.201ZM340.499 2.49896L332.629 11.121H340.695L346.484 4.76596L342.958 0.907959C342.006 1.25196 341.177 1.76796 340.499 2.49796V2.49896Z" fill="#3C3B3D"/>
<path fill-rule="evenodd" clip-rule="evenodd" d="M352.62 2.664C351.676 1.636 350.384 0.841 348.65 0.542C346.772 0.215 344.514 0.352 342.954 0.909L352.299 11.126L360.371 11.122L352.62 2.664ZM331.61 34.792H339.679L346.838 27.665C345.578 26.274 344.315 24.8843 343.049 23.496L331.607 34.792" fill="#3C3B3D"/>
<path fill-rule="evenodd" clip-rule="evenodd" d="M351.027 23.497H343.049L351.381 32.673C352.069 33.421 353.01 34.02 353.726 34.276L357.119 30.163L351.027 23.496V23.497ZM369.947 23.5C369.918 24.1336 369.666 24.7526 369.213 25.302C366.967 28.022 363.202 32.596 362.878 32.961C362.442 33.449 361.688 33.941 360.862 34.249C359.884 34.613 358.633 34.792 357.277 34.792C357.277 34.792 354.808 34.744 353.727 34.275L362.632 23.496L369.947 23.5ZM342.284 22.42H350.376L356.998 16.254L353.28 12.198L342.284 22.421V22.42ZM369.921 22.418C369.831 21.863 369.54 21.134 368.801 20.336L361.345 12.194H353.28L362.652 22.418H369.921ZM360.155 2.89202H360.809C361.235 2.89202 361.51 2.83002 361.51 2.52502C361.51 2.25502 361.159 2.17702 360.809 2.17702H360.155V2.89202ZM359.6 1.87502H360.892C361.675 1.87502 362.061 2.09302 362.061 2.54002C362.061 2.92102 361.714 3.19602 361.186 3.19602L362.151 4.24002H361.563L360.618 3.19602H360.155V4.24002H359.6V1.87502ZM360.713 4.77802C362.049 4.77802 363.047 4.02802 363.047 3.06102C363.047 2.09302 362.049 1.34502 360.713 1.34502C359.368 1.34502 358.364 2.09302 358.364 3.06102C358.364 4.02802 359.368 4.77802 360.713 4.77802ZM360.704 1.04102C361.472 1.04102 362.209 1.2537 362.752 1.63231C363.295 2.01091 363.601 2.52445 363.601 3.06002C363.601 4.17002 362.303 5.07702 360.704 5.07702C359.937 5.07596 359.201 4.86325 358.658 4.48533C358.115 4.10741 357.809 3.595 357.806 3.06002C357.806 1.94502 359.109 1.04102 360.704 1.04102ZM8.14574 14.997H15.8569L11.8601 8.73202L8.14574 14.997ZM24.2579 22.325H20.6239L17.3111 17.227H6.76612L3.63833 22.325H0L10.6583 4.93002H13.1651L24.2565 22.325H24.2579ZM49.3118 22.325H45.7481V8.85802H45.6735L38.0369 15.554H37.456L29.818 8.85902H29.7448V22.326H26.1825V5.02802H29.5254L37.7457 12.13L46.0019 5.03002H49.3118V22.325ZM67.9983 7.26202H57.4877V12.485H67.6369V14.718H57.4877V20.094H68.3267V22.326H53.9239V5.02802H67.9983V7.26202ZM76.4695 12.588H78.7598C82.5788 12.588 83.6702 11.218 83.6358 9.77402C83.5985 8.15102 82.2146 7.16002 78.7598 7.16002H76.4667V12.588H76.4695ZM79.1599 5.03002C84.1807 5.03002 87.3071 6.88402 87.3071 9.87401C87.3071 11.877 85.8142 13.374 83.1625 14.109C85.4155 15.147 86.7965 16.746 88.6867 18.902C89.7408 20.094 90.3617 20.677 92.0698 22.325H87.8162L84.5393 18.775C81.2695 15.224 79.778 14.821 77.9596 14.821H76.4681V22.325H72.9029V5.03002H79.1599ZM94.8333 22.325H98.3956V5.03002H94.8333V22.325ZM124.284 8.88502C121.231 7.64202 118.615 7.08502 115.737 7.08502C110.066 7.08502 105.847 9.89902 105.847 13.702C105.847 17.582 109.92 20.271 115.886 20.271C118.685 20.271 121.737 19.587 124.541 18.318V21.032C122.103 21.919 119.448 22.552 115.558 22.552C106.247 22.552 102.174 17.557 102.174 13.932C102.174 8.65602 107.885 4.80102 115.776 4.80102C118.32 4.80102 120.904 5.23402 124.284 6.22202V8.88502ZM135.377 14.997H143.087L139.084 8.73202L135.377 14.997ZM151.485 22.325H147.849L144.538 17.227H133.993L130.867 22.325H127.231L137.887 4.93002H140.395L151.485 22.325ZM177.157 22.325H174.101L157.517 9.01202V22.325H154.172V5.03002H157.006L173.81 18.42V5.03002H177.158L177.157 22.325ZM214.039 22.325H210.477V8.85802H210.404L202.766 15.553H202.185L194.547 8.85802H194.474V22.325H190.911V5.03002H194.257L202.476 12.131L210.731 5.03102H214.039V22.326V22.325ZM230.144 20.271C235.709 20.271 239.819 17.457 239.819 13.678C239.819 9.87302 235.709 7.08502 230.144 7.08502C224.617 7.08502 220.509 9.87302 220.509 13.678C220.509 17.457 224.617 20.271 230.144 20.271ZM230.144 4.80102C238.33 4.80102 243.492 8.85802 243.492 13.678C243.492 18.343 238.472 22.552 230.071 22.552C221.961 22.552 216.834 18.369 216.834 13.678C216.834 8.88502 222.11 4.80102 230.144 4.80102ZM250.686 20.093H255.165C259.344 20.093 260.47 18.647 260.47 17.354C260.47 15.782 258.722 14.666 254.98 14.666H250.686V20.093ZM250.686 12.434H253.051C256.579 12.434 258.289 11.523 258.289 9.67101C258.289 8.37701 257.236 7.26102 253.961 7.26102H250.686V12.434ZM247.124 5.03002H254.325C259.673 5.03002 261.959 7.26302 261.959 9.44202C261.959 11.243 260.764 12.411 258.18 13.145V13.196C261.887 13.678 264.144 15.376 264.144 17.709C264.144 19.839 261.852 22.325 255.633 22.325H247.124V5.03002ZM268.444 22.325H272.006V5.03002H268.444V22.326V22.325ZM281.113 20.093H292.311V22.325H277.546V5.03002H281.113V20.094V20.093ZM309.475 7.26202H298.963V12.485H309.112V14.717H298.963V20.094H309.799V22.325H295.398V5.03002H309.473L309.475 7.26302V7.26202Z" fill="#3C3B3D"/>
</g>
<defs>
<clipPath id="clip0_1_255">
<rect width="370" height="38" fill="white"/>
</clipPath>
</defs>
</svg>
